<svg version="1" xmlns="http://www.w3.org/2000/svg" width="400" height="400" viewBox="0 0 300.000000 300.000000"><path d="M126.5 10.6c-31.1 5.5-56.7 18.8-78.3 40.6C21.2 78.5 7 113 7 151.4c0 16.4 2 28.5 7.1 44.1 7 21.1 16.8 37.1 32.7 53.6 22.9 23.8 50.2 37.8 82.7 42.4 77.1 11 149.4-42.3 161-118.7C302.5 93.9 249 22.3 169 10c-9.2-1.4-33.1-1.1-42.5.6zm44.5 2.9c22.2 3.6 44.2 12.7 61.8 25.8 26.5 19.5 46.3 50.5 53.7 84 2.2 9.9 3.1 35.3 1.5 45.8-6.4 44.4-33.5 83.4-72 104.1-28.6 15.4-62.9 20.3-95 13.8-40.3-8.2-75.6-34.9-95.5-72.2-5.5-10.4-11.8-29.4-13.9-41.7-4.4-26.2-.2-56 11.5-81.1 13-27.7 39.1-54 66.3-66.5 10.6-5 26.5-10 36.1-11.4 4.4-.7 8.7-1.4 9.5-1.6 4.7-.9 27.9-.3 36 1z"/><path d="M131.5 14.6C84.3 21.5 45.5 49.8 25 92.5c-8.9 18.3-13 37-13 58.5 0 22.5 4.2 40.6 14 60.5 11.7 23.6 29.8 43.3 52 56.7 40.5 24.4 90.7 26.4 133.3 5.3 37.1-18.5 63-51.4 73-92.9 1.8-7.9 2.1-11.9 2.1-29.6 0-17.5-.3-21.8-2.2-29.6-5.5-23-14.4-40.9-29.8-59.4-17.5-21.2-42.8-36.8-71.2-44.2-10.6-2.7-13.4-3.1-30.2-3.3-10.2-.2-19.8-.1-21.5.1zm46 6.2c52.6 11.7 91.4 51 103.2 104.4 2.5 11.7 2.5 39.8-.1 51.8-8.1 37.5-30.6 69.1-62.8 88.2-21.8 12.9-49.3 19.8-74.2 18.5-33.8-1.8-62.4-14.1-86.6-37.4-19.8-19-32.8-42.3-38.6-69.3-2.5-11.9-2.6-40.2-.1-51.8 5.9-27.1 17.4-48.1 37.1-67.8C71 41.8 86 32.3 106 25.3c7.3-2.6 12.2-3.8 28-6.7 6.3-1.2 34.8.3 43.5 2.2z"/><path d="M149.6 22.5c-2 2.1-1.1 4.1 2.5 5.4 1.6.5 2.9 1.5 2.9 2 0 1.5-3.3 1.4-4.8-.1-1.7-1.7-2.8-.2-1.2 1.7 1.5 1.8 5.1 2 6.8.3 2.1-2.1 1.3-4.6-1.8-5.7-1.6-.5-3-1.5-3-2 0-1.5 2.3-1.4 3.8.1.6.6 1.5.8 1.9.4.9-.9-2.4-3.6-4.3-3.6-.7 0-1.9.7-2.8 1.5zM130.5 23c-.9 1.5.5 11 1.6 11 .5 0 .9-1.1.9-2.5 0-3.2 3.9-3.6 4.7-.5.3 1.1 1 2 1.5 2 .9 0 .1-8.5-.9-10.3-.6-1.1-7.1-.8-7.8.3zm6.5 2.5c0 2.1-3 3.1-4 1.4-1.1-1.7-.3-2.9 2.1-2.9 1 0 1.9.7 1.9 1.5zM165.5 28.1c-.7 4.7-.2 7 1 5.7.3-.3.8-2.8 1.2-5.7.8-6.8-1.3-6.9-2.2 0zM115.3 25.7c-2.6.5-2.7.8-1.2 7 1.1 4.3 1.3 4.5 4.2 3.9 1.6-.3 3.3-.6 3.8-.6s.9-.5.9-1.1c0-.7-1.1-.8-3.1-.4-2.6.6-3 .4-2.7-1.1.2-1 1.4-2.1 2.8-2.5 2.7-.8 1.8-1.2-1.7-1-3.4.3-3.6-1.6-.3-2.8 5.1-1.7 3.4-2.6-2.7-1.4zM178.3 26.3c1.4 1.2 1.6 2 .7 4.1-1.2 3.3-1.3 5.6-.2 5.6.5 0 1.4-1.8 2.1-4 .9-3.1 1.7-4 3.3-4 3.5 0 .8-1.8-3.7-2.5-3.6-.6-3.8-.5-2.2.8zM102.9 30.7c-.1.4 0 2.4 0 4.3l.2 3.5-3.1-3.3c-3.2-3.5-4-3.9-4-2 .1 2.1 6.8 9.1 7.9 8.3 1.4-.8 1.4-10.2.1-11-.5-.3-1-.3-1.1.2zM192.2 34.3c-2.3 2.4-3.9 4.6-3.6 5 .4.4 1.2.3 1.9-.3 1.7-1.4 5.2-.1 6.1 2.3.6 1.6.9.6 1.1-3.7.2-3.2 0-6.3-.4-6.7-.5-.5-2.8 1-5.1 3.4zm3.8 1.2c0 .8-.7 1.5-1.5 1.5-.9 0-1.2-.6-.9-1.5.4-.8 1-1.5 1.5-1.5s.9.7.9 1.5zM208.4 37.5c1.8 1.3 1.8 1.5-.4 4.9-1.2 2-1.8 4.1-1.4 4.7.4.7 1.5-.4 2.8-2.7 1.7-3 2.7-3.8 4.4-3.6 3.1.5 2.7-.5-1-2.8-3.9-2.4-7.4-2.8-4.4-.5zM86.5 39.1c1.2 3.8 4.7 8.9 5.6 8.3.5-.3-.3-2.8-1.7-5.5-2.7-5-5.1-6.7-3.9-2.8zM131.5 39c-16.5 3-37.2 11.6-49 20.5C59.4 76.8 45.1 99.2 37.8 129c-1.8 7.4-1.7 36.5.1 44.5 5 22 14.8 40.3 30 55.8 22.2 22.8 50.3 34.7 81.6 34.7 51.5 0 96.4-34.4 110.2-84.5 2.6-9.3 2.8-11.4 2.8-28.5-.1-19.9-1.3-27-7.2-41.8-13.3-33.4-43.8-59.8-79.1-68.4-9.7-2.3-35.8-3.4-44.7-1.8zm42.5 4.5c33.6 8.2 60.1 29.4 75.3 60 7.1 14.3 10.7 30.4 10.7 47.5 0 37.6-18.5 71.6-50.3 92.1-56.7 36.7-132.1 14.7-160.9-46.8-11.3-24-12.8-54.9-4.1-80.2C58.4 76 92.6 47.9 135.5 41.6c6.3-.9 32.2.3 38.5 1.9z"/><path d="M91 68.7c-8 6.9-17.5 15.2-21.1 18.4-3.7 3.3-7.8 6.9-9.3 8l-2.6 2v106.8l16.3 14.2c8.9 7.8 19.1 16.8 22.6 19.8 5.4 4.8 7.1 5.7 11.5 6.3 2.8.3 22.9.6 44.6.7l39.5.1 24.8-20.2 24.7-20.1.2-50.9c.1-27.9.2-52 .2-53.4.1-2.2-3.7-5.8-24.9-23.5l-25-20.8h-87L91 68.7zm124.6 9.9l24.7 20.7-.5 52-.4 52-3.5 3.1c-2 1.7-6.4 5.4-10 8.3-3.5 2.8-12.8 10.4-20.5 16.7l-14.1 11.5-43.1-.6-43.1-.6-10.3-9c-5.7-4.9-15-13-20.8-18-5.8-4.9-11.2-9.8-12.1-10.8-1.4-1.5-1.6-7.6-1.8-53.1l-.2-51.3 4.3-4.1c2.4-2.2 13-11.6 23.6-20.7L107.1 58h83.8l24.7 20.6z"/><path d="M86.3 80.8l-22.8 19.8v100.1l5 4.5c2.8 2.5 12.6 11.1 22 19.1l17 14.7 39.2.1c21.6.1 39.9.2 40.6.4 2 .3 4.7-1.7 27.1-20l21.3-17.4.6-24.8c.4-13.6.7-36.4.7-50.5V101l-20.6-17.2c-11.4-9.5-22.2-18.5-24.2-20.1l-3.6-2.7H109L86.3 80.8zm45.6-5.9c2.2 3.8 4.1 7.2 4.1 7.5 0 .3-4.3.6-9.5.6s-9.5-.3-9.5-.6c0-1.3 9.6-14.4 10.6-14.4.1 0 2 3.1 4.3 6.9zm21.6-3.4c1.4 1.3 2.5 2.8 2.5 3.3 0 2.1-4.3 6.2-6.5 6.2-2.6 0-6.5-3.5-6.5-5.7 0-1.9 4.6-6.3 6.5-6.3.9 0 2.7 1.1 4 2.5zm23.1.2c1 1.6 2.8 4.4 4.1 6.4 1.2 1.9 2.3 3.8 2.3 4.2 0 .4-4.5.7-10.1.7h-10l2.4-3.3c1.3-1.7 3.6-4.9 5.1-7 1.5-2 3.1-3.7 3.6-3.7s1.7 1.2 2.6 2.7zm-21 13.6c-1.7 1.4-2.7 3-2.5 4.2.6 2.9 2.6 2.9 5.2.1 1.4-1.4 2.7-2.6 3.1-2.6 1 0 .7 12.4-.4 14-.8 1.3-1 1.3-1-.2 0-2.6-4.6-5.4-6.4-3.8-1.9 1.5-.2 5.5 2.8 6.6 1.8.6 1.7.8-1.1 1.1-2.9.4-4.8 2.3-2.3 2.3 1.6 0 2.3 4.6 1 6.9-1.3 2.5-6.5 2.9-9.5.8-2.3-1.8-1.4-6.3 1.5-7.2 3.1-1 2.4-2.5-1.2-2.5h-3.3l2.9-2.3c3.3-2.6 3.3-6.4.1-5.9-3.7.5-4.5 1.1-4.5 3.2 0 1.1-.4 2-1 2s-1-3.3-1-8 .4-8 1-8 1 .9 1 2c0 2.5 4.5 4.9 6.2 3.2 1.4-1.4.2-6.2-1.7-6.2-.7 0-1.7-.5-2-1-.4-.6 2.4-1 7.7-1h8.3l-2.9 2.3zm-20.8 12.9l-.3 12.3H132c-2.2 0-2.6-.5-3-4-.4-3.2-.9-4-2.5-4s-2.1.8-2.5 4c-.4 3.5-.8 4-3 4h-2.5l-.3-12.3-.3-12.2h17.2l-.3 12.2zm46.5-1.2c-.1 5.8-.3 11.3-.3 12.2 0 1.2-.8 1.8-2.5 1.8-2.2 0-2.5-.4-2.5-4s-.3-4-2.4-4-2.5.5-2.8 3.7c-.3 3.3-.7 3.8-3 4.1l-2.8.3V85.9l8.2.3 8.3.3-.2 10.5zm-90.5-2.2c1.6 4.9 2.3 5.2 4.2 1.7.7-1.4 2.2-2.5 3.2-2.5s2.4 1.1 3 2.5c1.6 3.5 2.4 3.1 4-1.8.8-2.3 2.2-4.3 3.1-4.5 1.5-.3 1.7.7 1.7 7.7 0 7.1-.2 8.2-2.2 9.5-3 2.1-18.3 2.2-20.4.2-1.5-1.5-2.1-15.6-.7-17 1.3-1.3 2.7.1 4.1 4.2zm124 3.2c.4 10.2-.4 11-12.3 11-5.7 0-9.5-.4-10.3-1.2-.7-.7-1.2-4.3-1.2-9 0-6.9.2-7.8 1.8-7.8 1.3 0 2.2 1.2 3.1 4 1.3 4.3 2.6 5.1 3.6 2.1 1.1-3.5 3.7-3.5 6.6 0l2.7 3.3.7-3.5c2-9.5 4.9-9 5.3 1.1zm-114.2 14h9.5l-.3 7.2-.3 7.3-11.7.3-11.8.3v-7.5c0-7.4.7-9 3.8-8 .8.2 5.6.4 10.8.4zm113.4 7.5v7.5h-23v-15h23v7.5zm-80-2c0 2.4-.2 2.5-7.5 2.5s-7.5-.1-7.5-2.5.2-2.5 7.5-2.5 7.5.1 7.5 2.5zm47 0c0 2.4-.2 2.5-7.4 2.5-7.5 0-9.3-.8-8.2-3.5.4-1.1 2.4-1.5 8.1-1.5 7.3 0 7.5.1 7.5 2.5zm-22.3 6.9c4.8 4 11.8 10.2 15.5 13.7l6.7 6.4.5 10c.3 5.5.8 10.7 1.1 11.6.3.9-.1 2.2-1 2.9-1.1.9-1.2 1.6-.5 2.5.8.9.6 1.7-.5 2.9-1.9 1.8-2.4 1.9-4.4.7-.8-.5-1.2-1.8-.8-3 .3-1.2.2-2.3-.2-2.5-.3-.2-.6-3.3-.6-6.9.1-4.7.6-6.9 1.8-8.1 2.3-2.4 2.1-4.3-.8-7.1-4.7-4.8-13.1-2.5-13.7 3.8-.2 1.7-.7 3-1.3 2.7-.5-.3-.9-1.7-.7-3.1.2-1.4-.6-3.6-1.7-5-1.6-2.1-2.8-2.4-8-2.4-7.2 0-9 1.4-9.8 7.4-.6 4.7-2.3 5.5-2.3 1.1 0-2.3-.7-3.5-3.2-5-4.2-2.6-7.9-2.5-11.2.1-2.7 2.1-3.4 5.7-1.4 7.7.6.6 1.2 5.3 1.4 11.2.3 9.9.2 10-2.2 10.6-5 1.3-5.3-.2-4.1-27.5l.2-5.5 9-7.9c12.2-10.8 21.7-18.7 22.7-18.7.4 0 4.7 3.3 9.5 7.4zm-35.9 1.8c.7.7 1.2 2.5 1.2 4 0 4.9-7.3 5.8-9.1 1.1-1.6-4.4 4.6-8.4 7.9-5.1zm60.2.8c1.4 2.6.5 5.7-2.1 7.1-4.3 2.3-9.2-4.4-5.7-7.9 2-2 6.6-1.5 7.8.8zm-73.2 7.9c.6 10.4.8 10.2-12.1 9.9l-11.2-.3-.3-7.8-.3-7.8 11.8.3 11.8.3.3 5.4zm102.5-5c1.5.1 1.7 1.1 1.7 7.6v7.5h-23v-7.3c0-4.1.3-7.7.7-8.1.4-.4 4.8-.5 9.8-.2 4.9.3 9.8.5 10.8.5zm-102.8 19.4c.4 1.3.5 4.6.3 7.3l-.3 4.9-7 .5c-3.8.3-9.1.3-11.7.2l-4.8-.4V147h11.5c11.2 0 11.5.1 12 2.3zm104.3 5.4l-.3 7.8h-22l-.3-7.8-.3-7.7h23.2l-.3 7.7zm-58.5-3c1.8 1.7 2.3 4.3.8 4.3-.5 0-1.4-.7-2.1-1.5-1.4-1.7-4.7-1.9-8.4-.5s-3.5-1.4.2-3.5c3-1.6 6.8-1.2 9.5 1.2zm-20.8 1.3c1 1.1 1.6 2.2 1.4 2.4-.2.2-2.6.2-5.2-.1-4.6-.5-4.7-.6-3.1-2.4 2.2-2.5 4.6-2.4 6.9.1zm37.4-.4c3.1 2.2 1.5 3.3-3.9 2.5l-4.5-.6 2.5-1.8c3-2.1 3-2.1 5.9-.1zm-30 5.8c.9 1.1.9 1.7-.3 2.8-1.2 1.1-1.2 1.5.1 3 1.3 1.4 1.3 1.8 0 3-1.3 1.1-1.3 1.5.1 3.1 1.6 1.8 1.5 2-.3 3.3-2.4 1.8-3.9 1.8-5.5-.1-.8-.9-.9-2-.3-2.8 1.1-1.5 1.1-7.7-.1-9.5-1.9-3.1 3.9-5.7 6.3-2.8zm22.5-.1c1.7 1.2 1.7 1.5.2 3-1 .9-1.2 1.8-.6 2.2 1.4.9 1.3 4.5-.2 4.5-.6 0-.3.9.8 2.1 1.8 2 1.8 2.1-.1 3.5-2.4 1.8-3.9 1.8-5.5-.1-1-1.2-1-1.8-.1-2.9.9-1.1.9-2 .2-3.4-.7-1.3-.7-2.2.1-3 .8-.8.8-1.5-.2-2.7-1-1.2-1-1.8 0-3 1.5-1.8 3.1-1.9 5.4-.2zm-55.1 8.7c.3 1.1.3 2.9 0 4-.5 1.9-1.4 2-11.9 2H86v-8h11.4c10.5 0 11.4.1 11.9 2zm104.5 2.2l.3 3.8H191v-3.3c0-1.9.3-3.6.6-4 .4-.3 5.4-.5 11.3-.4l10.6.2.3 3.7zM103.5 177l4 .1-2.7 2.4c-4.7 4.1-3.3 13.4 2.3 15.4 2.7.9 3.2 2.1 4.2 10.1.1.9 1.5 1.6 3.3 1.8l3 .3-.6-5.3c-.4-2.9-1-6.1-1.5-7.1-.5-1.3-.1-2.5 1.5-4.2 1.9-2 2.2-3.2 1.8-7l-.6-4.5 6.7.1h6.6l-3.2 1.6c-2.9 1.4-3.3 2.2-3.3 5.4 0 2.8.5 4.1 2 4.9 1.1.6 2 1.9 2 3s-.9 2.4-2 3c-1.7.9-2 2.1-2 7 0 3.6.4 6 1.1 6 .5 0 2.3-1.4 3.9-3.2 1.6-1.7 3.1-3 3.3-2.7 1.1 1.4 2.7 9.3 2 9.8-.4.3-3.5 3.6-6.7 7.3-5.1 6-6.3 6.8-9.4 6.8-5 0-15.8-3.5-22-7-5.9-3.4-20.2-16.5-20.2-18.5 0-.7-1.6-1.6-3.5-1.9-4.2-.8-7.5-4.8-7.5-9 0-4.1 1.6-5.6 5.6-5.6 2.7 0 3.7.7 6.1 4.2 2.3 3.5 3.5 4.4 6.3 4.6 1.9.2 4 1 4.7 1.9 1 1.3 1.5 1.2 3.7-1.2 2.1-2.3 2.6-3.8 2.6-8.2 0-5.1-.2-5.5-3.5-7.4-1.9-1.2-3.3-2.4-3-2.8.2-.4 2.8-.6 5.7-.5 2.9.2 7.1.3 9.3.4zm49.8 0c6.6.1 7 .2 5.2 1.6-6.3 4.7-6.9 6.6-3.4 11.4 2.1 2.8 2.1 3.8-.3 7.3-1.1 1.4-1 1.9.2 2.7 2.7 1.7 5.3 1.1 8.8-2.3l3.4-3.2-.5 6.5c-.8 8.5-4.5 29.2-5.5 30.2-1.2 1.2-17.3 2-22.1 1.1-6.5-1.2-6.9-2.7-3.1-10.7l3.2-6.9-1.6-5.7c-.9-3.1-1.6-7.1-1.6-8.8 0-2.7.4-3.2 2.4-3.2 1.3 0 3.5.9 4.9 2 3.1 2.5 3.7 2.5 3.7 0 0-1-.9-2.4-2-3-2.9-1.5-2.5-4.5 1-7 3.6-2.6 3.9-6.1.8-9-1.2-1.1-2.5-2-3-2-.4 0-.8-.5-.8-1.1 0-.6.7-.8 1.6-.5.9.3 4.8.6 8.7.6zm29.2 0c5.5.1 5.8.2 4 1.5-4 2.9-4.5 3.6-4.5 6.9 0 2 .8 4 2 5.1 2.4 2.1 2.6 4.3.5 5.1-1.4.6-2.2 6.4-.9 7.6.3.3 2.5-.5 5-1.9 4.6-2.6 12.5-3.4 17.4-1.9 2.4.8 2.4.7-.4-1.7-2.9-2.3-3-2.6-1.8-6.4 1.8-6 1.5-9.1-1.3-11.8l-2.4-2.5h18.4l-3.8 3.3c-3.7 3.1-3.8 3.4-3.5 8.7.3 5.3.4 5.5 3 5.3 2.2-.1 2.8.4 3.3 2.7.4 1.6 1.5 4 2.6 5.3l1.9 2.5-4.4 4c-6.1 5.6-15.7 12.6-19.6 14.2-3.1 1.3-3.3 1.2-7.8-3.5-6.1-6.2-7.6-7.1-14.4-8.5-5.3-1.1-5.8-1.4-5.8-3.9 0-2 .7-2.9 3-3.8 2.4-.9 3-1.7 3-4.2 0-1.6-.4-3.3-1-3.6-.5-.3-1-2.1-1-3.9 0-5.7-4.3-8-11.7-6.2-3.8.9-4.4-.5-1.3-3.2 4.3-3.6 10.5-3.2 14 1l1.9 2.3.1-2.8c0-2-.7-3.1-2.5-3.9-3.1-1.4-3.3-3.2-.2-2.4 1.2.3 4.9.6 8.2.6zm-40 4c3.3 1.2 4.2 3.7 2.2 5.7-1.4 1.4-1.7 1.4-3.3-.2-1.4-1.4-2.7-1.6-6.6-1.1-5.7.8-6.3-.5-1.5-3.4 3.6-2.2 5.4-2.4 9.2-1zm57.5.5c3.3 1.7 3.8 3.6 1.5 5.5-1.3 1-1.9 1-3.5-.5-1.5-1.4-2.9-1.6-7.1-1-5.8.8-6-.3-.5-3.6 3.8-2.3 5.8-2.4 9.6-.4zm-83.6.1c.9.3 1.6 1.4 1.6 2.3 0 1.4-1 1.7-5.5 1.7-6-.1-6.6-.7-3.3-3 2.4-1.7 4.6-2 7.2-1zm115.3 11c.3 3-.6 4.5-4.4 7.8-2.1 1.7-2.4 1.8-4.7.3-4.7-3.1-4.2-8.7.8-8.7 1.1 0 3-.7 4.1-1.5 2.6-2.1 4-1.4 4.2 2.1zM177.1 215c9.2 3.7 10.3 4.8 9.5 9.2-.8 4.4-5.5 6.8-14.5 7.6l-6.4.5.6-6.3c.4-3.5.7-8 .7-10.1 0-4.8.5-4.8 10.1-.9z"/><path d="M123.5 90.3c-.4 1.3-.5 3.9-.3 5.8.3 3 .6 3.4 3.3 3.4 3 0 3-.1 3-5.5 0-5.2-.1-5.5-2.7-5.8-2.2-.3-2.9.2-3.3 2.1zM171.2 88.9c-.9.5-1.2 2.5-1 5.7.3 4.7.4 4.9 3.3 4.9 2.7 0 3-.4 3.3-3.4.7-6.9-1.6-9.8-5.6-7.2zM92 118.9c0 4.4.3 5.1 2 5.1s2-.7 2-4c0-2.2.1-4.3.3-4.8.1-.4-.8-.8-2-1-2.1-.3-2.3 0-2.3 4.7zM99 119.1c0 4.7.2 5 2.3 4.7 1.9-.3 2.2-1 2.5-5.1.3-4.5.2-4.7-2.2-4.7-2.4 0-2.6.3-2.6 5.1zM197 118.9c0 3.3.5 5.1 1.4 5.4 2.1.8 2.6-.2 2.6-5.5 0-4.1-.3-4.8-2-4.8s-2 .7-2 4.9zM204 119c0 3.6.4 5.2 1.5 5.7 2.1.7 2.5.2 3-3.8.6-4.6-.3-6.9-2.6-6.9-1.6 0-1.9.7-1.9 5zM144.6 125.6c-2.4 2.4-2 8 .6 9.8 3 2.2 6 2 8.6-.4 4.4-4.1 1.6-11-4.3-11-1.8 0-4.1.7-4.9 1.6zm6.8 1.7c2.6 1.9 1.8 6.1-1.2 6.5-4.4.7-6.7-3.2-3.6-6.2 1.9-1.9 2.5-2 4.8-.3zM133.7 133.6c-.4.4-.7 2.7-.7 5.1 0 4.1.1 4.3 3.1 4.3s3-.1 2.7-4.8c-.2-3.8-.7-4.8-2.3-5-1.2-.2-2.4 0-2.8.4zM160 137.9c0 4.8.2 5.1 2.6 5.1s2.5-.2 2.2-4.8c-.3-4-.6-4.7-2.5-5-2.1-.3-2.3 0-2.3 4.7zM95.4 132.3c-.3.8-.4 3.2-.2 5.3.2 3.2.7 4 2.6 4.2 2.2.3 2.3.1 2-5-.2-4.1-.7-5.4-2.1-5.6-.9-.2-2 .3-2.3 1.1zM200 137c0 4.7.2 5 2.5 5s2.5-.3 2.5-5-.2-5-2.5-5-2.5.3-2.5 5zM92 154.5c0 4.8.2 5.5 2 5.5s2-.7 2-5.5-.2-5.5-2-5.5-2 .7-2 5.5zM99 154.5c0 4.8.2 5.5 2 5.5s2-.7 2-5.5-.2-5.5-2-5.5-2 .7-2 5.5zM197 154.4c0 5 .2 5.6 2.1 5.6 1.8 0 2-.5 1.7-5.2-.2-4.1-.7-5.4-2-5.6-1.5-.3-1.8.5-1.8 5.2zM204.7 149.7c-.4.3-.7 2.8-.7 5.5 0 4.1.3 4.8 2 4.8 1.8 0 2-.7 2-5.5 0-3.9-.4-5.5-1.3-5.5-.8 0-1.7.3-2 .7zM76 43.8c0 .5.7 1.7 1.5 2.8 2.3 3 1.8 3.5-2.2 1.9-5.4-2.3-6.3-.5-2.2 4.6 1.8 2.3 3.5 3.7 3.7 3 .2-.7-.3-2-1.2-3-2.5-2.8-1.9-3.3 2-1.6 6.3 2.6 6.9 1.7 2.8-4.5-2.5-3.7-4.4-5.1-4.4-3.2zM219.7 49c-1.6 2.2-2.5 4.5-2.2 5 .4.6 1.9-.6 3.4-2.7 4.1-5.7 4.4-6.3 2.9-6.3-.7 0-2.6 1.8-4.1 4zM230 55.4c0 1.4.5 2.8 1 3.1.6.3 1 1.3 1 2.1 0 2.5-3.3 1.1-4.1-1.6-.5-2.2-.7-2.3-1.4-.7-.5 1.2-.1 2.5 1 3.7 3.8 4.1 9 1.2 6-3.4-1.9-2.9-1.2-5.4 1.1-3.5.7.6 1.2 1.5.9 1.9-.3.5-.1 1.1.5 1.5 1.4.9 1.3-2.8-.2-4.3-.7-.7-2.2-1.2-3.5-1.2-1.8 0-2.3.6-2.3 2.4zM61 55.8c0 .5 1.1 1.9 2.5 3.2 2.8 2.7 3.2 5.5.9 6.4-1 .4-2.5-.5-4.2-2.4-2.8-3.2-4.2-3.8-4.2-1.8 0 1.8 5.2 6.8 7 6.8 2.1 0 5-3.1 5-5.3 0-.8-1.2-2.9-2.6-4.6-2.5-3-4.4-4-4.4-2.3zM23.8 156.8c-3.9.3-4.8.7-4.8 2.2 0 1.4 1 2.1 3.5 2.6 4.4.8 4.4 1.7 0 3.2-4.6 1.7-3.7 4.2 1.5 4.2 2.1 0 4.5-.3 5.4-.6 2.7-1 .7-2.4-2.7-1.8l-3.2.5 3.3-1.8c4.2-2.2 4.1-3.7-.5-5l-3.8-1 3.2-.2c1.7 0 3.4-.5 3.8-1 .8-1.4-.4-1.6-5.7-1.3zM268.7 156.6c-1.2 1.2-.8 7.1.6 8.2 1 .8 4.6 1 9 .3.4-.1.7-1.9.7-4.1 0-3.7-.2-4-2.7-4-1.6 0-3.7-.3-4.8-.6-1.1-.3-2.4-.2-2.8.2zm4.1 4.6c-.2 1.3-.7 2.3-1.3 2.3-.5 0-1.1-1-1.3-2.3-.2-1.5.2-2.2 1.3-2.2s1.5.7 1.3 2.2zm4.5-1.6c.8.8-.3 3.4-1.4 3.4-.5 0-.9-.9-.9-2 0-1.9 1.1-2.6 2.3-1.4zM266.6 173.2c-1.2 3.8-1.5 6.8-.7 6.8.5 0 1.2-1.1 1.5-2.5.4-1.4 1.3-2.5 2.1-2.5 1.1 0 1.4.7.9 2.4-.3 1.3-.1 2.7.5 3 .7.5 1.1-.3 1.1-1.8 0-1.7.5-2.6 1.6-2.6 1.3 0 1.5.7 1.1 3-.7 3.1.6 4.2 1.7 1.4 1.2-3 .6-6.3-1.1-6.8-5.7-1.6-8.3-1.7-8.7-.4zM25.3 178.1c-5.1 1.5-3.9 2.9 1.7 2.2 4.6-.5 5-.4 5 1.5 0 1.7-.9 2.4-4.5 3.3-5.5 1.4-6.1 3.4-.8 2.4 5.5-1 7.3-2.3 7.3-5 0-2.5-2.4-5.6-4.3-5.4-.7 0-2.7.5-4.4 1zM263 188c0 .5.7 1 1.6 1 1 0 1.4.7 1.2 2.2-.2 1.6-1 2.3-2.5 2.3-3.2.1-3.8 1.2-1.1 2 1.3.3 3.3 1.1 4.5 1.7 2.7 1.3 4.7 0 6.1-4.2 1-2.7.8-2.9-3.2-4.4-4.8-1.8-6.6-2-6.6-.6zm8 4.2c0 .7-.5 2-1 2.8-1.2 1.9-3.5-.2-2.7-2.4.7-1.9 3.7-2.1 3.7-.4zM30.8 195.7c-3.4 1.4-5.1 3.3-3 3.3 1.7 0 10.2-3.5 10.2-4.2 0-1.2-3-.8-7.2.9zM256.2 204.2c-.7.7-1.2 2-1.2 2.9 0 1-.6 1.9-1.2 2.2-.8.2-.1 1 1.5 1.8 2.4 1.1 3 1.1 3.8-.2 1.3-2.1 1.1-3.3-.5-2-1.7 1.4-2.9 0-2-2.4.9-2.1 5.3-1.6 6.8.8.9 1.5.7 2.2-1.3 3.8-3 2.5-2 3.7 1.4 1.5 3-2 3.3-5.6.7-7.9-2.2-2-6.3-2.2-8-.5zM36.8 205.2c-1.5.5-3 1.8-3.3 2.9-.8 2.3 1.2 7.9 2.7 7.9.8 0 4.6-1.8 9.6-4.6.7-.4-3.1-5.5-4.7-6.3-.9-.5-2.8-.4-4.3.1zm4.6 2.4c2.3 2.2 2 3-1.3 4.4-5 2-7.2-1.4-2.9-4.4 2.7-1.9 2.3-1.9 4.2 0zM246.7 219.8c-1 1-1.7 2.5-1.7 3.4 0 2.1 4.2 5.8 6.7 5.8s5.3-3 5.3-5.7c0-4.7-7.1-7.1-10.3-3.5zm7.8 3.7c0 3-3.1 4.2-5.4 2.1-2.6-2.3-2.7-4.2-.3-5.5 2.1-1.2 5.7.9 5.7 3.4zM44.5 222.4c-3.8 3.1-2.6 4.5 1.3 1.7 6.2-4.4 9.3-1 3.5 3.8-4.6 3.8-3.6 5.3 1.2 2 4.3-3 5-4.5 3-7.5-2-3.1-5.2-3-9 0zM238 230.7c0 .4 1 1.8 2.3 3.1l2.2 2.5-3.2-1.7c-1.8-.9-3.4-1.6-3.8-1.6-.9 0-.5 3.9.5 4.5.6.3 1 1.3 1 2.2 0 1.3-.5 1.2-2.5-.7-4.2-3.9-4.1-1.2 0 3 3.4 3.5 4.1 3.8 5.4 2.6 1.2-1.3 1.2-1.8-.3-4.1-2.2-3.3-1.8-3.8 2.2-2.3 2.3.9 3.5.9 4.3.1.8-.8.1-2.1-2.7-4.7-3.7-3.4-5.4-4.4-5.4-2.9zM59.8 237c-2.2 1.8-3.9 2.6-4.3 2-.4-.6-1.1-.8-1.7-.4-.5.4.2 1.8 1.8 3.5 3.3 3.4 4.8 3.7 3.9.8-.5-1.6 0-2.7 2-4.3 1.5-1.3 2.6-2.8 2.4-3.4-.3-.8-1.8-.1-4.1 1.8zM221.5 245.5c-1.6 1.3-2.6 2.7-2.2 3.1.4.4 1.5 0 2.5-.9 1-1 2.4-1.7 3-1.7 1.8 0 1.4 2.8-.5 3.9-1 .5-1.5 1.2-1.1 1.6.3.3 1.5.1 2.7-.6 2.9-1.9 4-.1 1.4 2.1-1.3 1-2.3 2.1-2.3 2.4 0 1.2 2 .5 4.5-1.7l2.6-2.2-3.1-4.3c-1.8-2.3-3.5-4.2-3.8-4.2-.4.1-2 1.2-3.7 2.5zM70.3 245.6c-.3.9.2 2.9 1.1 4.4 2.2 3.8.4 4.8-2.3 1.3-1.8-2.5-2-2.6-2.1-.8 0 2.7 1.8 4.5 4.7 4.5 3.1 0 3.9-2.3 1.9-5.2-2-2.8-2-3.8 0-3.8.9 0 1.8.9 2.1 2 .6 2.3 2.3 2.7 2.3.6 0-3.8-6.4-6.2-7.7-3zM212 252.5c0 .4.7 1.9 1.5 3.6l1.6 3-3.8-1.9c-5.8-2.9-6.7-1.8-3.1 4 3 4.8 5.3 5.4 2.8.8-1.6-3-.8-3.4 3.4-1.4 1.9 1 3.9 1.5 4.2 1.1.7-.7-4.7-9.7-5.8-9.7-.5 0-.8.2-.8.5zM193.6 261.3c-3.1 2.2-1.7 5.2 2.7 5.5 2.5.2 3.7.8 3.7 1.9 0 1.1-.6 1.4-2.4.9-3-.7-4.5 1-1.7 1.9 3 .9 6.3-1.2 5.9-3.8-.2-1.8-1.1-2.3-4.1-2.5-4.4-.4-4.7-2.7-.3-2.7 1.4.1 2.5-.4 2.3-1-.5-1.6-4-1.7-6.1-.2zM183 265.2c0 2 3.3 10.8 4 10.8 1.3 0 1.2-.6-.4-5.9-.7-2.5-1.8-4.7-2.4-4.9-.7-.2-1.2-.2-1.2 0zM169.9 268.8c-2.7 2.3-2 5.2 1.3 5.2 1.3 0 3 .5 3.8 1 1.3.9 1.3 1.1 0 1.9-.9.7-1.9.6-2.7-.1-1.7-1.3-3.1-.2-1.6 1.3s5.4.7 6.7-1.4c.9-1.5.7-2.1-.8-3.3-1.1-.8-3-1.4-4.3-1.4-1.3 0-2.3-.5-2.3-1 0-1.7 2.9-2.3 4.5-1 .9.7 1.9 1 2.3.6.7-.7-2.4-3.6-3.9-3.6-.4 0-1.7.8-3 1.8z"/></svg>