<svg version="1" xmlns="http://www.w3.org/2000/svg" width="400" height="400" viewBox="0 0 300.000000 300.000000"><path d="M125.5 10.6C80.4 19 43.8 45.6 23.1 85.1c-10.9 20.7-15 36.7-15.8 60.9-.6 19.8 1 32.6 6.4 48.8 16.9 51.5 61.6 89.1 114.8 96.7 40.3 5.8 80.2-5.2 112-30.8 26-21 44.8-53.7 50-87.2 2.1-13.4 1.6-39.7-1-51.5C277.4 66.8 235.8 24.9 180 11.8c-11.6-2.7-42.8-3.4-54.5-1.2zm53 4.4c26.9 5.8 50.1 18.5 70.1 38.4 19.5 19.6 31.9 42.9 38.1 71.7 2.5 11.8 2.5 40.1 0 51.8-6.1 28.1-18.5 51.7-37.1 70.6-11.9 12.1-23.3 20.3-38.1 27.5-22.8 11.1-37.1 14.4-62 14.4-24.9-.1-39.7-3.5-62-14.4-40.7-19.8-68.9-58.4-76.1-103.8-2-12.8-1.5-35.4 1.1-47.2C18.6 96.4 31 73.2 49.9 54c21.8-22.1 47.8-35.5 78.7-40.5 12.5-2 36.7-1.3 49.9 1.5z"/><path d="M128.1 15c-10.1 1.4-26.6 6.7-37.8 12-40.6 19.3-69.2 57.1-76.8 101.5-2 11.8-2.3 31.9-.5 42.6 9.2 57 50.5 101 107 114 12.7 3 37.7 3.7 50.9 1.5 45.1-7.6 81.9-34.3 101.8-74.1 37-73.6 1-163.2-76.7-191-15.7-5.6-22.2-6.7-42.5-7-10.4-.2-21.9 0-25.4.5zm51 6.4c36.2 8.4 67.6 31.3 85.7 62.8 22.2 38.4 24.1 83.9 5.3 123.4-7 14.6-14 24.5-26 36.5-47.8 48-121 53.1-175.7 12.2C48.5 241.5 31 217.2 23 193.2c-5.1-15.6-6.3-23.1-6.3-42.2s1.1-26.4 6.3-42.2c13.6-40.9 49-74.5 90.6-85.9 20.3-5.6 45.5-6.1 65.5-1.5z"/><path d="M149.8 22.1c-2.8 1.6-2.1 3.9 1.7 5.5 1.9.8 3.5 1.9 3.5 2.4 0 1.4-3.4 1.2-4.8-.2-1.7-1.7-2.8-.2-1.2 1.7 2.4 2.9 8 1.5 8-2 0-1.7-.8-2.6-3-3.4-1.6-.5-3-1.5-3-2 0-1.5 2.3-1.4 3.8.1.6.6 1.5.8 1.9.4.9-.8-2.4-3.6-4.1-3.6-.6 0-1.9.5-2.8 1.1zM130.4 23.5c-.8 2.1.5 10.5 1.7 10.5.5 0 .9-1.1.9-2.5 0-3.2 3.9-3.6 4.7-.5.3 1.1.9 2 1.4 2 1 0 .5-8.3-.6-10-1-1.6-7.5-1.2-8.1.5zm6.6 2c0 .8-.9 1.5-2 1.5s-2-.7-2-1.5.9-1.5 2-1.5 2 .7 2 1.5zM166.5 23c-.3.5-.9 3.2-1.2 6-.7 5.9 1.3 7.1 2.2 1.2.3-2 .8-4.5 1-5.4.4-2-1-3.3-2-1.8zM177 25.6c0 .8.5 1.4 1.1 1.4.8 0 .9 1.5.5 4.5-.9 5.7.9 6.1 2.4.5.8-2.9 1.6-4 3-4 3.6 0 2.1-1.6-2.5-2.7-3.6-.8-4.5-.8-4.5.3zM114.8 25.7c-2.1.5-2.2 2.3-.7 7.7 1 3.6 1.2 3.8 4.1 3.2 1.7-.3 3.4-.6 3.9-.6s.9-.5.9-1.1c0-.7-1.1-.8-3-.4-2.3.5-3 .3-3-.9 0-.9 1.1-1.8 2.5-2.2 1.4-.3 2.2-1 1.9-1.5-.3-.5-1.7-.6-3.1-.3-1.9.5-2.4.3-2.1-.7.3-.8 1.4-1.5 2.6-1.7 1.2-.2 2.2-.8 2.2-1.3 0-.9-3.1-1-6.2-.2zM102.7 29.7c-.4.3-.4 2.5-.1 4.7l.6 4.1-3.1-3.3c-4.6-4.8-5.8-2.9-1.5 2.4 5.1 6.1 6.4 5.8 6.4-1.5 0-5.6-.9-7.9-2.3-6.4zM191.8 34.4c-2.1 2.4-3.4 4.6-3.1 5 .3.3 1.1.2 1.8-.4 1.7-1.4 5.2-.1 6.1 2.3.6 1.7.9.8 1.1-3.2.4-5.5 0-8.1-1.4-8.1-.4.1-2.5 2-4.5 4.4zm3.8 2.3c-1 1-1.9-.5-1-1.8.6-1.1.8-1.1 1.2 0 .2.7.1 1.5-.2 1.8zM207.5 36c-.3.4.2 1.3 1 2 1.2 1 1.1 1.6-.6 4.3-1 1.8-1.9 3.8-1.9 4.4 0 2.4 1.6 1.3 3.8-2.6 1.7-3 2.7-3.8 4.2-3.4 1.1.3 2 .1 2-.3 0-1.3-7.9-5.4-8.5-4.4zM86 38.1c0 1.9 5.2 9.9 6.1 9.3C93.2 46.8 88.4 37 87 37c-.6 0-1 .5-1 1.1zM128.7 39.5c-27.9 5.3-53.5 21.2-70.6 44-7.2 9.5-15.5 26.9-18.8 39-2.5 9.2-2.7 11.6-2.7 28.5-.1 17.1.1 19.3 2.7 28.5 11.7 43.2 46.8 75.1 91 83 7.8 1.4 12.9 1.6 24 1.2 19-.8 33-4.5 48.7-12.8 25.9-13.8 45.9-37.5 54.8-64.9 7-21.4 7.1-47.5.4-69.2-11.3-36.1-42.5-65.7-79.7-75.4-12.6-3.4-37.1-4.2-49.8-1.9zm36.2 2.5c27.6 3.5 55.6 19.9 72.8 42.8 15.9 21.1 23.2 44.6 22 71.1-2.2 50.5-37.8 92-87.9 102.7-11.5 2.5-33.3 2.5-44.8 0-42.2-9.1-74.9-40.8-85.1-82.6-3.1-12.8-3.3-35.3-.5-48 12.7-56.6 65.4-93.2 123.5-86z"/><path d="M101 60.1C97.4 63 86.3 72.6 76.3 81.3L58 97.2v53.7l.1 53.6 15.1 13c8.3 7.1 18.8 16.2 23.4 20.2l8.4 7.2 43.8.1h43.7l24.8-20 24.7-20.1v-33.2c0-18.3.3-42.2.7-53.3l.6-20-25.4-21.2L192.5 56h-20.1c-11 0-30.2-.3-42.5-.7l-22.4-.6-6.5 5.4zM215.9 79l24.4 20.4-.7 52.1-.7 52-2.7 2.5c-1.6 1.4-12.3 10.2-23.8 19.6l-21.1 17.2-43.1-.7-43.1-.6-22-19-22.1-19-.1-38c0-20.9-.3-44.4-.5-52.2l-.5-14.1 23.7-20.7 23.7-20.6 42.1.3 42.1.3L215.9 79z"/><path d="M101 67.7c-4.1 3.6-14.4 12.6-22.7 20L63 101.1V200.8l6.2 5.4c3.5 2.9 13.4 11.5 22.1 19l15.8 13.8h35.3c19.4 0 38 .3 41.2.6l5.9.5 21.5-17.6c11.8-9.6 22.5-18.6 23.6-19.9 2.1-2.4 2.1-3 2.3-52.2l.1-49.9-11.7-9.5c-6.4-5.2-13.8-11.3-16.3-13.5-2.6-2.2-8.1-6.8-12.2-10.3l-7.6-6.2-40.3.1h-40.4l-7.5 6.6zm30.6 7c5.6 8.8 5.9 8.3-5 8.3-5.3 0-9.6-.3-9.6-.6 0-1.1 9.2-13.4 10.1-13.4.4 0 2.5 2.6 4.5 5.7zm23.1-2c1.5 2.2 1.5 2.6-.4 5.1-2.7 3.6-6.9 3.6-9.5.1-1.7-2.2-1.8-3-.8-4.8 2.3-4.4 7.9-4.6 10.7-.4zm23.9 2.5c2.1 3.4 4.1 6.6 4.2 7 .2.5-3.9.8-9.2.8-5.3 0-9.6-.3-9.6-.6 0-1 9.2-13.4 9.9-13.4.5 0 2.6 2.8 4.7 6.2zm-22.2 9c-2.6 1.2-4.5 5-3.4 6.7 1 1.7 4.7.5 6-2 .6-1 1.5-1.9 2-1.9 1.1 0 1.3 8.2.4 11.6-.6 2.1-.6 2.1-2.9-.2-1.3-1.3-3.1-2.4-3.9-2.4-3.8 0-2.9 5.2 1.2 7.5l2.7 1.4-3.9.1h-3.9l2.2 2.4c4.4 4.7.4 9.9-6.3 8.2-3.8-.9-4.4-4.5-1.2-7.2 3.4-3 3.3-3.4-.6-3.4l-3.3-.1 2.8-2c2.6-2 3.9-6.9 1.8-6.9-2.4 0-6.1 2.1-6.1 3.5 0 .8-.4 1.5-1 1.5s-1-3.2-1-7.5.4-7.5 1-7.5 1 .9 1 2c0 2 2.7 4 5.4 4 1 0 1.6-.9 1.6-2.3 0-2.7-.9-4-3.5-5.5-1.6-.9-.3-1.1 6.5-1.1 6.6 0 8 .3 6.4 1.1zm-21.6 12.3c.4 12.5-.1 14.7-3.1 14.3-1.8-.2-2.3-1-2.5-4.6-.3-3.4-.7-4.2-2.2-4.2-2.3 0-4.1 3-3.7 6.2.2 1.9-.3 2.3-2.3 2.3h-2.5V99c-.1-6.3.1-11.9.3-12.3.2-.4 3.8-.7 8-.5l7.7.3.3 10zm46.2 2.1c0 12.4 0 12.5-2.2 12.2-1.8-.2-2.4-1.1-2.6-3.8-.4-4.3-1.4-5.4-4.1-4.5-1.7.5-2.1 1.4-2.1 4.6 0 3.6-.2 4-2.2 3.7-2.2-.3-2.3-.8-2.6-11.2-.1-6.1 0-11.6.2-12.3.4-.9 2.8-1.3 8.1-1.3h7.5v12.6zm-71.2-.3c.3 7.2.1 7.7-2.3 9.3-2.1 1.4-3.9 1.5-10.8.9-4.5-.4-8.8-1.1-9.4-1.7-.8-.7-1.3-3.7-1.3-8.4 0-6.5.2-7.4 1.8-7.4 1.3 0 2.2 1.2 3.1 4 .6 2.2 1.4 4 1.7 4 .3 0 1.6-1.2 3-2.8l2.4-2.7 2.9 3.3 2.9 3.3.6-2.5c2.6-10.2 5-9.9 5.4.7zm86.3-2.3l1.7 4.5 1.2-2.7c2.2-4.6 6-4.5 7.5.3 1 3.1 2.2 2.2 3.4-2.6.9-3.4 1.6-4.5 3.1-4.5 1.8 0 2 .7 2 7.2 0 10.1-.8 10.8-12.5 10.8-5.7 0-9.5-.4-10.3-1.2-.7-.7-1.2-4.3-1.2-9.1 0-6.9.2-7.8 1.7-7.5 1 .2 2.5 2.2 3.4 4.8zm-86.6 17c.3.5.3 3.9-.1 7.5l-.7 6.5H86v-15h11.4c6.3 0 11.7.4 12.1 1zm104.5 6.5v7.5h-23v-15h23v7.5zm-80-2c0 2.4-.2 2.5-7.5 2.5s-7.5-.1-7.5-2.5.2-2.5 7.5-2.5 7.5.1 7.5 2.5zm46.8.2c.3 2.2 0 2.3-7.2 2.3-7.5 0-7.6 0-7.6-2.5 0-2.6.1-2.6 7.3-2.3 6.6.3 7.2.5 7.5 2.5zm-16.1 12c7.4 6.4 14.1 12.6 14.8 13.7.8 1.2 1.6 6.6 1.9 12.5.3 5.8.8 10.7 1.1 10.9.3.3-.2 1.3-1.1 2.3-1 1.1-1.2 1.9-.5 2.3 2 1.2-.1 3.6-3.1 3.6-2.9 0-3-.2-2.4-3 .3-1.7.2-3-.2-3s-.7-3-.6-6.6c.1-5 .5-6.9 1.8-7.6 4.2-2.4-.8-9.8-6.6-9.8-4.6 0-7.8 2.4-7.8 6 0 1.6-.4 3.2-1 3.5-.6.4-1-.8-1-3 0-5.5-3.5-8.5-10-8.5-6.4 0-10 3-10 8.5 0 1.9-.4 3.5-1 3.5-.5 0-1-1.4-1-3 0-5.2-8-8.7-13.3-5.9-1.2.7-2.5 1.7-2.9 2.3-1.1 1.6-1 6.4.2 6.8 1.3.4 2 19 .8 20.5-1.4 1.8-3.3 1.6-5.3-.3-1.2-1.2-1.3-1.9-.4-3 .6-.7.7-1.9.3-2.5-.4-.7-.6-4.5-.5-8.3.2-3.9.4-9.5.4-12.5l.2-5.4 11-9.6c15.8-13.8 18.7-16.1 20.8-16.1 1.1 0 8 5.2 15.4 11.7zm-41.4-2.6c.5.9.7 2.8.3 4.2-.5 2.3-1.2 2.7-4 2.7-3.4 0-4.6-1.3-4.6-4.9 0-4 6.1-5.5 8.3-2zm59.1-.5c1.9 1.8 2 2.8.6 5.5-1.2 2.2-5.9 2.6-7.8.7-2.6-2.6-.1-7.8 3.8-7.8 1 0 2.6.7 3.4 1.6zm-73.6 3.7c.7.9.9 3.6.4 7.8l-.7 6.4h-22l-.3-6.4c-.2-3.5-.1-7 .2-7.7.7-1.9 20.9-2 22.4-.1zm105.2 7.2v7.6l-11.2-.3-11.3-.3-.3-7.3-.3-7.2H214v7.5zm-105 17v7.5H86v-15h23v7.5zm105-.1c0 5-.4 7.5-1.2 7.8-1.1.3-15.8.3-20.5-.1-1.4-.1-1.9-13.2-.6-14.4.3-.4 5.5-.7 11.5-.7H214v7.4zm-58.7-2.6c.9.8 1.7 2.1 1.7 2.9 0 1.1-.6 1.1-3-.4-2.5-1.4-3.6-1.5-7-.6-4 1-4.6.8-3.2-1.4 2-3.2 8.1-3.4 11.5-.5zm-21.5.8c3.4 2.3 2.7 3.3-2 2.7-5.3-.7-5.8-1.1-3.4-2.9 2.5-1.8 2.7-1.7 5.4.2zm37.3-.6c2.3 1.3 2.6 4.5.3 3.6-.9-.3-3-.6-4.7-.6l-3.2-.1 2.4-1.9c2.7-2.3 2.6-2.3 5.2-1zm-30.7 5.6c1.9.7 2.1 4 .4 4.8-1 .5-1 .7 0 1.2 1.5.7 1.6 4.4 0 4.4-.6 0-.4.8.6 1.9 1.6 1.7 1.6 2 .1 3.5-2.1 2-2.9 2-5 0-1-1-1.2-2-.6-2.8 1-1.2.8-9.2-.3-10.3-.7-.7 1.2-3.3 2.4-3.3.5 0 1.5.3 2.4.6zm23 0c1.9.7 2.1 4 .4 4.8-1 .5-1 .7 0 1.2 1.5.7 1.6 4.4 0 4.4-.6 0-.4.8.6 1.9 1.6 1.7 1.6 2 .1 3.5-2 2-2.6 2-5.1.2-1.5-1.1-1.6-1.7-.7-2.7.7-.7.9-2.4.6-3.9-.3-1.6 0-3.1.7-3.5.8-.5.6-1.1-.7-2.1-1.7-1.3-1.7-1.5.1-2.9 2.3-1.7 2-1.7 4-.9zm-54.6 11.7l.3 3.8-11.3-.3c-11-.3-11.3-.4-11.6-2.6-.7-5 0-5.3 11.5-5l10.8.3.3 3.8zm105.2.2v3.5h-23v-7h23v3.5zm-109.2 9.8c-2.2 1.8-2.8 3.1-2.8 6.2 0 5.2 2 8.9 4.8 9.3 2.6.4 4.2 3.7 4.2 8.3 0 2.3.6 3.2 2.6 3.9 1.4.6 2.9.8 3.4.5 1-.6.2-9.4-1.2-12.2-.9-1.8-.6-2.7 1.4-5.2 2.2-2.5 2.5-3.5 1.8-7l-.7-4.1h6.1c5.6.1 5.9.2 4.2 1.5-1.1.8-2.3 1.5-2.8 1.5-1.8 0-.8 7.7 1.2 9.5 1.1 1 2 2.4 2 3.1 0 .7-.9 1.8-2 2.4-1.7.9-2 2.1-2 7 0 7 1.5 7.9 5 3 1.2-1.7 2.5-3 2.9-3 .4 0 1.2 1.9 1.8 4.2l1.1 4.2-6.5 7.8c-5.6 6.7-6.9 7.8-9.6 7.8-4.6 0-15.8-3.4-21.6-6.6-5.7-3.1-19.7-15.5-20.6-18.3-.3-1.1-1.9-2.1-3.9-2.5-4.3-.8-6.6-3.5-7.3-8.3-.6-4.7 1.1-6.6 5.9-6.1 2.7.2 3.7 1.1 5.6 4.5 2 3.6 2.8 4.3 5.4 4.3 1.7 0 3.9.7 4.9 1.6 1.5 1.4 1.9 1.3 4.3-.9 2.2-2.1 2.6-3.2 2.6-8.4 0-5.8-.1-6.1-3-7.3-5.6-2.3-4.2-3 5.7-3l9.8.1-2.7 2.2zm51.9.2c-3.1 2.2-3.7 3.2-3.7 6.1 0 2.1.6 3.7 1.4 4 2.3.9 2.8 3.5 1 6.1-.8 1.4-1.3 3.1-1 3.9.9 2.3 6 1.7 8.6-1.1 3.4-3.7 4.3-3.1 3.7 2.2-1 9.9-4.9 29.8-5.9 30.4-3.9 2.4-23 1.9-26.5-.6-1.7-1.3-1.6-1.7 1.5-7.9 3.4-7 3.8-9.5 2.2-12.6-.5-1-1.3-4.3-1.6-7.4-.7-5.4-.6-5.6 1.7-5.6 1.3 0 3.5.9 4.9 2 1.4 1.1 2.8 2 3.3 2 1.6 0 .6-4.1-1.3-5.2-2.9-1.8-2.5-4.6 1-6.6 4.3-2.5 4.2-7.2-.2-10.1l-3.3-2.1h18l-3.8 2.5zm28.6-.4c-2.8 1.8-3.3 2.7-3.3 5.8 0 2.3.8 4.7 1.9 6 1.9 2.2 1.9 5.1 0 5.1-1 0-1.3 6.3-.3 7.2.3.4 2.7-.5 5.3-1.8 4.9-2.6 11.6-3.4 16.6-2l3 .8-2.8-2.7c-2.1-2-2.7-3.3-2.2-4.9 1.9-6.3 1.8-9.7-.4-12.7l-2.2-2.9h8.8c9.1.1 9.5.4 3.4 3.9-.7.4-1.7 2.9-2.2 5.5-1.1 6.1.2 9 3.7 8.2 1.8-.5 2.4-.2 2.4 1 0 .9 1 3.4 2.2 5.6l2.3 4-5 4.4c-6.1 5.4-17.2 13-20.2 13.9-1.6.4-2.7-.2-4.7-2.8-3.8-5-9.3-8.3-15.8-9.8-5.4-1.1-5.8-1.4-5.8-4 0-2.2.6-2.9 3-3.4 2.6-.6 3-1.1 3-4 0-1.9-.4-3.7-1-4-.5-.3-1-2.1-1-4 0-5.6-4.3-8.3-10.5-6.6-3.9 1.1-4.6 0-1.8-3.1 2.6-2.9 9-2.4 12.5.9l2.8 2.7v-2.7c0-1.8-.8-3.1-2.7-4.1-2.7-1.5-2.4-1.5 5.7-1.5l8.5-.1-3.2 2.1zm-40.5 3.2c1.1 1.2 1.1 1.9.3 3.6-1.1 2-1.3 2-3.7.5-1.8-1.2-3.7-1.5-6.9-1.1-5.3.8-5.7-.3-1.2-3.2 3.5-2.4 9-2.3 11.5.2zm55.2-.8c3.5 1.8 3.6 2.2 1.4 4.6-1.5 1.7-1.8 1.7-3.2.2-1.2-1.1-2.8-1.4-6.4-1-5.6.7-6.1-.3-1.5-3.2 3.8-2.5 5.8-2.6 9.7-.6zm-83.1.4c2.8 1.8.5 3.5-4.7 3.5-5.7.1-6.3-.5-3-2.8 2.5-1.8 5.6-2 7.7-.7zM231.8 193c.2 1.8-.7 3.5-3.2 5.9-3.3 3.2-3.4 3.2-6 1.6-4.9-3.2-3.9-8.5 1.5-8.5 1 0 2.1-.5 2.4-1.1 1.3-2 5-.5 5.3 2.1zM176 214.6c7.9 3.1 9.7 4.4 10 6.9.6 5.6.1 6.3-5.5 8.4-5.6 2.1-13 2.8-13.9 1.3-.9-1.6.7-19.2 1.8-19.2.6 0 4 1.2 7.6 2.6z"/><path d="M123.7 88.6c-.4.4-.7 3.2-.7 6.1v5.4l3.3-.3c3.2-.3 3.2-.3 3.2-5.8 0-5.1-.2-5.5-2.5-5.8-1.4-.2-2.9 0-3.3.4zM170.7 88.6c-.4.4-.7 3.2-.7 6.1v5.4l3.3-.3c3.2-.3 3.2-.3 3.2-5.8 0-5.1-.2-5.5-2.5-5.8-1.4-.2-2.9 0-3.3.4zM91.9 116.7c-.7 5.2.1 7.4 2.4 7.1 1.9-.3 2.2-1.1 2.5-5.1.3-4.4.2-4.7-2.1-4.7-1.9 0-2.6.6-2.8 2.7zM99 119c0 4.7.2 5 2.5 5s2.5-.3 2.5-5-.2-5-2.5-5-2.5.3-2.5 5zM197 119.6c0 4.7.3 5.5 1.8 5.2 1.3-.2 1.8-1.5 2-5.6.3-4.7.1-5.2-1.7-5.2-1.9 0-2.1.6-2.1 5.6zM204 119.5c0 5.3.1 5.6 2.3 5.3 1.9-.3 2.2-.9 2.2-5.3 0-4.4-.3-5-2.2-5.3-2.2-.3-2.3 0-2.3 5.3zM145.8 124.6c-2.3 1.2-2.8 2.1-2.8 5.3 0 6.5 6.5 9.6 11 5.1 5.6-5.6-1.3-14.2-8.2-10.4zm6.7 5.9c0 2.5-.4 3.1-2.7 3.3-1.8.2-3-.3-3.7-1.7-1.7-3.1-.3-5.3 3.3-4.9 2.7.3 3.1.7 3.1 3.3zM133.7 133.6c-.4.4-.7 2.7-.7 5.1 0 4.1.1 4.3 3.1 4.3s3-.1 2.7-4.8c-.2-3.8-.7-4.8-2.3-5-1.2-.2-2.4 0-2.8.4zM159.4 134.4c-.3.8-.4 2.9-.2 4.8.2 2.8.7 3.4 3.1 3.6 2.6.3 2.7.2 2.7-4.7 0-4.8-.2-5.1-2.5-5.1-1.4 0-2.8.6-3.1 1.4zM95.7 131.6c-.4.4-.7 2.9-.7 5.6 0 4.5.2 4.8 2.6 4.8s2.5-.2 2.2-5.2c-.2-3.8-.7-5.4-1.8-5.6-.9-.1-1.9 0-2.3.4zM200 137c0 4.7.2 5 2.5 5s2.5-.3 2.5-5-.2-5-2.5-5-2.5.3-2.5 5zM91.4 150.3c-.3.8-.4 3.2-.2 5.3.3 3.4.6 3.9 2.8 3.9 2.3 0 2.5-.3 2.5-5 0-4.4-.3-5-2.3-5.3-1.3-.2-2.4.3-2.8 1.1zM99 154.5c0 5.3.1 5.6 2.3 5.3 1.9-.3 2.2-.9 2.2-5.3 0-4.4-.3-5-2.2-5.3-2.2-.3-2.3 0-2.3 5.3zM197 154.4c0 5 .2 5.6 2.1 5.6 1.8 0 2-.5 1.7-5.2-.2-4.1-.7-5.4-2-5.6-1.5-.3-1.8.5-1.8 5.2zM203.4 153.5c-.7 5.1.2 6.9 3.2 6.3 1.6-.3 1.9-1.3 1.9-5.3 0-4.4-.3-5-2.2-5.3-1.9-.3-2.3.3-2.9 4.3zM76 43.8c0 .5.7 1.7 1.5 2.8 2.3 3 1.8 3.4-2.1 1.8-5.3-2.2-6.3-.5-2.8 4.5 3.7 5.1 6.5 5.7 3.4.6L73.9 50l3.6 1.6c6.1 2.5 7.2 1.2 3.4-4.1-3-4.2-4.9-5.6-4.9-3.7zM219.5 49.1c-1.7 2.6-2.3 4.5-1.7 5.1.5.5 1.5-.1 2.6-1.6.9-1.5 2.3-3.7 3.2-5.1 1.4-2.1 1.4-2.5.1-2.5-.8 0-2.7 1.9-4.2 4.1zM231.3 52.7c-1.6.6-1.7 3.8-.1 6.3.7 1 .9 2.2.6 2.6-1.3 1.2-3.8-.5-3.8-2.6 0-1.1-.4-2-1-2-1.7 0-1.1 3.6.8 5.3 4.2 3.8 8.7.7 5.7-3.9-1.9-2.9-1.9-3.4-.1-3.4.7 0 1.6.9 1.9 2.1.3 1.2 1 1.8 1.6 1.5 1.3-.8.3-3.7-1.7-5.4-1.7-1.3-2-1.3-3.9-.5zM61 55.9c0 .4 1.1 2 2.5 3.5 2.8 3.1 3 3.7 1.3 5.4-.9.9-1.9.5-4.4-1.9-4.5-4.4-6.6-2.8-2.3 1.7 3.7 3.8 5.8 4.2 8.2 1.6 2.5-2.7 2.1-5.5-1.1-8.5-2.9-2.8-4.2-3.3-4.2-1.8zM23 156.9c-5.8.8-6 3.1-.5 4.7l4 1.1-3.8 1.9c-5.5 2.6-4.6 4.9 1.8 4.5 5.4-.3 6.5-.7 6.5-2.3 0-.6-1.4-.8-3.7-.4l-3.8.6 3.3-1.7c1.7-.9 3.2-2.2 3.2-2.8 0-.7-1.5-1.7-3.2-2.3l-3.3-1 3.3-.1c2.1-.1 3.2-.6 3.2-1.6 0-.8-.6-1.4-1.2-1.3-.7 0-3.3.4-5.8.7zM268 159.6c0 5.4.9 6.3 6 6.1l4.5-.2.6-4.3c.5-3.8.3-4.2-1.5-4.2-1.2 0-3.8-.3-5.8-.6l-3.8-.7v3.9zm5 1.4c0 1.1-.7 2-1.5 2s-1.5-.9-1.5-2 .7-2 1.5-2 1.5.9 1.5 2zm4 0c0 1.1-.4 2-1 2-.5 0-1-.9-1-2s.5-2 1-2c.6 0 1 .9 1 2zM266 173.7c0 1-.3 2.8-.6 4-.4 1.3-.2 2.3.4 2.3.5 0 1.3-1.1 1.6-2.5 1-3.8 3.7-3.3 3 .5-.4 1.8-.2 3 .4 3 .6 0 1.2-1 1.4-2.2.2-1.2.9-2.4 1.7-2.6 1.1-.4 1.3.2.8 2.7-.5 2.4-.3 3.1.6 2.8.6-.2 1.5-2 1.8-4 .6-4 .6-4.1-6.8-5.2-3.7-.6-4.3-.4-4.3 1.2zM24.8 178.2c-4.5 1.6-3.2 2.8 2.2 2.1 4.6-.5 5-.4 5 1.5 0 1.7-.9 2.4-4.5 3.3-5.5 1.4-6.1 3.4-.8 2.4s7.3-2.2 7.3-4.6c0-5.3-3.2-7-9.2-4.7zM263 187.4c0 .8.7 1.7 1.6 2 2.3.9 1.3 4.1-1.3 4.1-3.1 0-3.3 1.9-.3 2.3 1.4.2 2.9.8 3.5 1.3 2 2 4.3.8 5.8-2.9 1.7-4.2 1.6-4.2-5.3-6.7-3.3-1.2-4-1.2-4-.1zm7.5 4.6c.9 1.5-1.6 4.3-2.7 3.2-1-1 0-4.2 1.2-4.2.5 0 1.2.5 1.5 1zM32.3 195.1c-4.9 1.9-7 3.9-4.1 3.9 2.7 0 9.8-3.4 9.8-4.6 0-.8-.1-1.4-.2-1.3-.2 0-2.7.9-5.5 2zM255.6 205.2c-.8 1.2-1.3 2.5-1 3 .3.4 0 .8-.7.8-.8 0-.8.4.1 1.5 1.6 2 4.6 1.9 5.4-.1.9-2.4.7-2.8-.8-1.5-2.1 1.8-3.2-.7-1.3-2.7 1.3-1.3 2.1-1.3 4.2-.4 3 1.4 3.2 3.7.5 5.4-2.3 1.5-2.6 2.8-.7 2.8 2 0 4.7-3.3 4.7-5.7 0-4.9-7.6-7.2-10.4-3.1zM36.3 205.2c-1.3.6-2.5 2-2.9 3-.7 2.2 1.3 7.8 2.8 7.8.8 0 8.7-3.7 9.6-4.5.5-.5-1.6-4.1-3.4-5.9-1.8-1.8-3-1.9-6.1-.4zm6.1 3.3c.5 1.5-2.9 4.5-5 4.5-2.3 0-2.6-3.4-.4-5.2 2.2-1.8 4.5-1.5 5.4.7zM249.5 217.8c-4.5.9-5.8 5.9-2.5 9.2 3.7 3.7 10 1.4 10-3.7 0-3.2-4.1-6.2-7.5-5.5zm4.6 3.8c1.3 1.6.4 4.4-1.8 5.1-1.9.7-5.5-3.1-4.8-5 .9-2.1 4.8-2.2 6.6-.1zM45.7 221.5c-2 1.4-3.7 3-3.7 3.5 0 1.6 1.5 1.2 4.4-1.1 2.8-2.2 5.6-2 5.6.5 0 .8-1.3 2.4-3 3.6-3.1 2.2-3.9 4-1.7 4 1.8 0 7.7-5.6 7.7-7.3 0-1.2-4-5.7-5.1-5.7-.2 0-2.1 1.1-4.2 2.5zM238 230.7c0 .4 1 1.8 2.3 3.1l2.2 2.5-3.2-1.7c-1.8-.9-3.5-1.6-3.9-1.6-.7 0-.1 3.3 1.1 6.5.7 1.8.5 1.7-1.8-.4-4.3-3.9-4.4-1.4-.2 2.9 3.3 3.4 4.1 3.8 5.3 2.6 1.2-1.1 1.1-1.8-.3-4.6-1.6-3.2-1.6-3.3.1-2.5 1.1.4 3.1 1 4.7 1.3 3.9.6 3.5-1.9-.8-5.7-3.4-3-5.5-3.9-5.5-2.4zM59.5 237c-2.2 2.3-3.1 2.7-4.2 1.8-2.7-2.2-2.6.3.2 3.2 3.2 3.4 4.9 3.9 4.1 1.2-.4-1.2.4-2.8 2.4-4.7 1.6-1.5 2.7-3.2 2.4-3.7-.9-1.4-1.9-.9-4.9 2.2zM221.5 245.4c-3.5 2.8-2.8 4.5.8 2.1 3.4-2.2 4.6-.1 1.5 2.5-1.7 1.4-1.9 1.9-.7 2 .8 0 2-.5 2.7-1.2.9-.9 1.5-.9 2.3-.1.8.8.5 1.5-1.1 2.6-1.2.9-2.1 2-1.9 2.6.3.7 1.8 0 3.7-1.6l3.4-2.8-3.1-4.3c-1.7-2.3-3.4-4.2-3.9-4.2-.4 0-2 1.1-3.7 2.4zM70 246.3c0 1.2.7 3.2 1.5 4.4 2.3 3.2 0 3.8-2.4.6-2-2.7-2-2.7-2.1-.6 0 1.3 1.1 2.9 2.6 3.9 2.3 1.6 2.6 1.6 4.2.1 1.5-1.6 1.5-1.9-.1-4.6-2.1-3.6-2.1-4.1-.2-4.1.9 0 2.1 1.2 2.7 2.7 1.1 2.7 1.2 2.8 1.6.5.5-3.1-1.4-5.2-4.9-5.2-2.4 0-2.9.4-2.9 2.3zM212 252.5c0 .4.7 1.9 1.5 3.6l1.6 3-4.2-2.1c-2.3-1.2-4.5-1.8-5-1.3-1.1 1.1 4.9 10.6 6.1 9.8.6-.4.3-1.6-.6-3.1-2.1-3.2-1.2-4.1 2-2 2.6 1.6 5.6 2.2 5.6.9 0-1.4-5.1-9.3-6-9.3-.6 0-1 .2-1 .5zM193.6 261.3c-3.1 2.3-1.7 5.2 2.7 5.5 3.9.3 4.8 2.6 1.1 2.8-3.5.2-3.9.4-2.4 1.4 2.2 1.4 3.5 1.2 6-.8 3.3-2.6 1.7-5.2-3.2-5.2-2.7 0-3.8-.4-3.5-1.3.2-.6 1.6-1.1 3.1-1 1.7.1 2.6-.2 2.3-1-.5-1.8-3.9-2-6.1-.4zM183 265.8c0 2.2 3.3 10.2 4.2 10.2 1.1 0 .6-3.7-1.1-8.3-1-2.5-3.1-3.8-3.1-1.9zM169.9 268.8c-3 2.5-1.9 4.9 2.5 5.8 2 .3 3.6 1.1 3.6 1.6 0 .6-1.3.8-3.1.4-2.2-.4-2.9-.2-2.6.7.6 1.9 5.8 1.5 7.1-.6.9-1.5.7-2.1-.8-3.3-1.1-.8-3-1.4-4.3-1.4-1.3 0-2.3-.4-2.3-.9 0-1.4 3.2-2.3 4.4-1.1 1.4 1.4 2.6 1.3 2.6-.4 0-1.3-2-2.6-4-2.6-.4 0-1.8.8-3.1 1.8z"/></svg>